<?xml version="1.0" encoding="UTF-8" standalone="no"?>
<!-- Created with Inkscape (http://www.inkscape.org/) -->

<svg
   width="210.61281mm"
   height="83.770393mm"
   viewBox="0 0 210.61281 83.770393"
   version="1.1"
   id="svg1276"
   sodipodi:docname="KotlinCCTBLogo.svg"
   inkscape:version="1.1.1 (3bf5ae0d25, 2021-09-20)"
   inkscape:export-filename="C:\Users\Joerg\Documents\Uni\projects\Teaching\IntroProgrammingBiologists\KotlinCCTBLogo.png"
   inkscape:export-xdpi="96"
   inkscape:export-ydpi="96"
   xmlns:inkscape="http://www.inkscape.org/namespaces/inkscape"
   xmlns:sodipodi="http://sodipodi.sourceforge.net/DTD/sodipodi-0.dtd"
   xmlns="http://www.w3.org/2000/svg"
   xmlns:svg="http://www.w3.org/2000/svg">
  <sodipodi:namedview
     id="namedview1278"
     pagecolor="#ffffff"
     bordercolor="#666666"
     borderopacity="1.0"
     inkscape:pageshadow="2"
     inkscape:pageopacity="0.0"
     inkscape:pagecheckerboard="0"
     inkscape:document-units="mm"
     showgrid="false"
     inkscape:zoom="1.0985947"
     inkscape:cx="317.22344"
     inkscape:cy="212.54425"
     inkscape:window-width="1920"
     inkscape:window-height="1057"
     inkscape:window-x="-8"
     inkscape:window-y="-8"
     inkscape:window-maximized="1"
     inkscape:current-layer="layer1"
     fit-margin-top="0"
     fit-margin-left="0"
     fit-margin-right="0"
     fit-margin-bottom="0">
    <inkscape:grid
       type="xygrid"
       id="grid4752"
       originx="0.48167558"
       originy="-50.751188" />
  </sodipodi:namedview>
  <defs
     id="defs1273" />
  <g
     inkscape:label="Ebene 1"
     inkscape:groupmode="layer"
     id="layer1"
     transform="translate(0.48167557,-50.75119)">
    <rect
       style="fill:#ffffff;fill-opacity:1;stroke:none;stroke-width:3.175;stroke-miterlimit:4;stroke-dasharray:none;stroke-opacity:1"
       id="rect27436"
       width="210.49239"
       height="84.293289"
       x="-0.2408376"
       y="50.75119" />
    <g
       id="Logotypes"
       transform="matrix(0.1,0,0,0.1,31.529237,70.731676)">
	<polygon
   class="st0"
   points="500,0 250,250 500,500 0,500 0,0 "
   id="polygon1349" />

</g>
    <g
       id="g1506"
       transform="matrix(0.15750467,0,0,0.15750467,119.83052,75.887926)">
      <g
         id="g10"
         inkscape:label="Original_Markus"
         transform="matrix(1.25,0,0,-1.25,-53.5625,329.8125)"
         style="display:none">
        <g
           id="g12"
           transform="scale(0.1)">
          <path
             d="m 2360,1619.99 c 0,-504.42 -408.92,-913.33 -913.34,-913.33 -504.418,0 -913.336,408.91 -913.336,913.33 0,504.42 408.918,913.34 913.336,913.34 504.42,0 913.34,-408.92 913.34,-913.34"
             style="fill:#ffffff;fill-opacity:1;fill-rule:nonzero;stroke:none"
             id="path14"
             inkscape:connector-curvature="0" />
          <path
             d="m 2360,1619.99 c 0,-504.42 -408.92,-913.33 -913.34,-913.33 -504.418,0 -913.336,408.91 -913.336,913.33 0,504.42 408.918,913.34 913.336,913.34 504.42,0 913.34,-408.92 913.34,-913.34 z"
             style="fill:none;stroke:#3959b1;stroke-width:210;stroke-linecap:butt;stroke-linejoin:miter;stroke-miterlimit:10;stroke-dasharray:none;stroke-opacity:1"
             id="path16"
             inkscape:connector-curvature="0" />
          <path
             d="m 2160,1240 h 333.328 v 753.328 H 2160 Z"
             style="fill:#ffffff;fill-opacity:1;fill-rule:nonzero;stroke:none"
             id="path18"
             inkscape:connector-curvature="0" />
          <path
             d="m 2160,1240 h 333.328 v 753.328 H 2160 Z"
             style="fill:none;stroke:#ffffff;stroke-width:10;stroke-linecap:butt;stroke-linejoin:miter;stroke-miterlimit:10;stroke-dasharray:none;stroke-opacity:1"
             id="path20"
             inkscape:connector-curvature="0" />
          <g
             id="g22"
             transform="scale(10)"><text
   transform="matrix(1,0,0,-0.96589427,81.5715,132.424)"
   id="text24"
   style="line-height:0%"
   y="0"><tspan
     style="font-variant:normal;font-weight:500;font-size:83.8601px;line-height:1.25;font-family:HelveticaNeue;-inkscape-font-specification:HelveticaNeue-Medium;writing-mode:lr-tb;fill:#96d778;fill-opacity:1;fill-rule:nonzero;stroke:none"
     x="0 60.54562 110.27381"
     y="0"
     sodipodi:role="line"
     id="tspan26">CTB</tspan></text>

</g>
          <g
             id="g28"
             transform="scale(10)"><text
   transform="matrix(1,0,0,-1,277.944,175.64)"
   id="text30"
   style="line-height:0%"
   y="0"><tspan
     style="font-variant:normal;font-weight:100;font-size:47px;line-height:1.25;font-family:HelveticaNeue;-inkscape-font-specification:HelveticaNeue-Thin;writing-mode:lr-tb;fill:#3959b1;fill-opacity:1;fill-rule:nonzero;stroke:none"
     x="0 34.215317 59.736813 85.257324 97.899933 123.42145 137.61484 151.80911 164.26424 190.63043 204.82471"
     y="0"
     sodipodi:role="line"
     id="tspan32">Center for</tspan></text>

</g>
          <g
             id="g34"
             transform="scale(10)"><text
   transform="matrix(1,0,0,-1,496.962,175.64)"
   id="text36"
   style="line-height:0%"
   y="0"><tspan
     style="font-variant:normal;font-weight:100;font-size:47px;line-height:1.25;font-family:HelveticaNeue;-inkscape-font-specification:HelveticaNeue-Thin;writing-mode:lr-tb;fill:#96d778;fill-opacity:1;fill-rule:nonzero;stroke:none"
     x="0 34.215832 60.581982 99.121979 126.38177 151.90327 165.20309 189.83096 203.13176 212.1552 238.52242 264.04285 288.67078"
     y="0"
     sodipodi:role="line"
     id="tspan38">Computational</tspan><tspan
     style="font-variant:normal;font-weight:100;font-size:47px;line-height:1.25;font-family:HelveticaNeue;-inkscape-font-specification:HelveticaNeue-Thin;writing-mode:lr-tb;fill:#96d778;fill-opacity:1;fill-rule:nonzero;stroke:none"
     x="-219.01801 -194.3896 -168.86909 -141.6093 -127.41499 -101.89447 -76.372955 -50.852512 -24.486317 -10.855423 14.66507 27.965853 36.989292 62.509785 87.138695 96.162132 110.35641 141.0937 150.11714 176.48436 185.5078 211.87395 238.24118"
     y="56.400002"
     sodipodi:role="line"
     id="tspan40">and Theoretical Biology</tspan></text>

</g>
        </g>
      </g>
      <g
         transform="matrix(1.25,0,0,-1.25,-53.5625,329.8125)"
         inkscape:label="Original_Markus Kopie"
         id="g3057">
        <path
           inkscape:connector-curvature="0"
           d="m 211.2,124 h 33.3328 v 75.3328 H 211.2 Z"
           style="fill:#ffffff;fill-opacity:1;fill-rule:nonzero;stroke:none"
           id="path3065" />
        <g
           id="g3895"><path
   inkscape:connector-curvature="0"
   id="path3063"
   transform="matrix(0.8,0,0,-0.8,0,310.05)"
   d="m 180.8125,57.75 c -70.14567,0 -127.25,57.16664 -127.25,127.3125 0,70.14586 57.1045,127.3125 127.25,127.3125 53.63094,0 99.66914,-33.41642 118.375,-80.5 h -28.75 c -16.8413,32.27338 -50.58525,54.25 -89.625,54.25 -55.959,0 -101,-45.10336 -101,-101.0625 0,-55.95914 45.04117,-101.0625 101,-101.0625 39.38122,0 73.37322,22.35662 90.0625,55.09375 h 28.65625 C 281.0442,91.5627 234.76582,57.75 180.8125,57.75 Z"
   style="color:#000000;font-style:normal;font-variant:normal;font-weight:normal;font-stretch:normal;font-size:medium;line-height:normal;font-family:Sans;-inkscape-font-specification:Sans;text-indent:0;text-align:start;text-decoration:none;text-decoration-line:none;letter-spacing:normal;word-spacing:normal;text-transform:none;writing-mode:lr-tb;direction:ltr;baseline-shift:baseline;text-anchor:start;display:inline;overflow:visible;visibility:visible;fill:#3959b1;fill-opacity:1;stroke:none;stroke-width:21;marker:none;enable-background:accumulate" />
<text
   style="line-height:0%"
   y="-134.74167"
   x="80.168404"
   transform="scale(1.0175018,-0.9827992)"
   id="text3898"><tspan
     style="font-variant:normal;font-weight:500;font-size:82.4176px;line-height:1.25;font-family:HelveticaNeue;-inkscape-font-specification:HelveticaNeue-Medium;writing-mode:lr-tb;fill:#96d778;fill-opacity:1;fill-rule:nonzero;stroke:none"
     x="80.168404 139.67259 188.54543"
     y="-134.74167"
     sodipodi:role="line"
     id="tspan3073">CTB</tspan></text>

</g>
      </g>
    </g>
    <ellipse
       style="fill:#96d778;fill-opacity:0.905882;stroke-width:1.32292"
       id="path1610"
       cx="76.670471"
       cy="95.84864"
       rx="3.5762613"
       ry="3.7465594" />
    <ellipse
       style="fill:#96d778;fill-opacity:0.905882;stroke-width:1.32292"
       id="path1610-1"
       cx="92.545471"
       cy="95.84864"
       rx="3.5762613"
       ry="3.7465594" />
    <ellipse
       style="fill:#96d778;fill-opacity:0.905882;stroke-width:1.32292"
       id="path1610-5"
       cx="108.42047"
       cy="95.84864"
       rx="3.5762613"
       ry="3.7465594" />
    <ellipse
       style="fill:#96d778;fill-opacity:0.905882;stroke-width:1.32292"
       id="path1610-52"
       cx="169.70659"
       cy="95.84864"
       rx="3.5762613"
       ry="3.7465594" />
    <ellipse
       style="fill:#96d778;fill-opacity:0.905882;stroke-width:1.32292"
       id="path1610-6"
       cx="186.60709"
       cy="95.699165"
       rx="3.5762613"
       ry="3.7465594" />
    <ellipse
       style="fill:#96d778;fill-opacity:0.905882;stroke-width:1.32292"
       id="path1610-6-0"
       cx="186.40857"
       cy="113.43468"
       rx="3.5762613"
       ry="3.7465594" />
    <ellipse
       style="fill:#96d778;fill-opacity:0.905882;stroke-width:1.32292"
       id="path1610-6-3"
       cx="186.40858"
       cy="130.77502"
       rx="3.5762613"
       ry="3.7465594" />
    <path
       style="fill:none;stroke:#3959b1;stroke-width:3.175;stroke-linecap:butt;stroke-linejoin:miter;stroke-miterlimit:4;stroke-dasharray:none;stroke-opacity:1"
       d="m -0.48167557,131.97921 c 164.25149557,0 164.25149557,0 164.25149557,0"
       id="path4908" />
    <path
       style="fill:none;stroke:#3959b1;stroke-width:3.175;stroke-linecap:butt;stroke-linejoin:miter;stroke-miterlimit:4;stroke-dasharray:none;stroke-opacity:1"
       d="M 9.1331403e-7,57.319438 C 64.785416,57.319438 64.785416,57.319438 64.785416,57.319438"
       id="path4908-9" />
    <path
       style="fill:none;stroke:#3959b1;stroke-width:3.175;stroke-linecap:butt;stroke-linejoin:miter;stroke-miterlimit:4;stroke-dasharray:none;stroke-opacity:1"
       d="m 144.14153,57.560276 c 65.98961,0 65.98961,0 65.98961,0"
       id="path4908-9-2" />
    <g
       id="g26619"
       transform="translate(0.72251392,14.450278)">
      <text
         xml:space="preserve"
         style="font-size:10.5833px;line-height:1.25;font-family:sans-serif;letter-spacing:0px;stroke-width:0.265;stroke-miterlimit:4;stroke-dasharray:none"
         x="65.507927"
         y="46.722553"
         id="text9734"><tspan
           sodipodi:role="line"
           id="tspan9732"
           style="font-size:10.5833px;stroke-width:0.265;stroke-miterlimit:4;stroke-dasharray:none"
           x="65.507927"
           y="46.722553">Kotlin @ CCTB</tspan></text>
      <rect
         style="fill:none;fill-opacity:0.905882;stroke:#3959b1;stroke-width:1.32292;stroke-miterlimit:4;stroke-dasharray:none;stroke-opacity:1"
         id="rect26512"
         width="78.86322"
         height="12.464468"
         x="64.248672"
         y="36.962372" />
    </g>
  </g>
  <style
     type="text/css"
     id="style1347">
	.st0{fill:#7F52FF;}
</style>
</svg>
